<?xml version="1.0" encoding="UTF-8"?>
<svg id="gear_logo_2" data-name="gear logo 2" xmlns="http://www.w3.org/2000/svg" viewBox="0 0 1080 1080">
  <defs>
    <style>
      .cls-1, .cls-2 {
        fill: #0038a8;
      }

      .cls-3 {
        fill: #fcd116;
      }

      .cls-4 {
        fill: #ce1126;
      }

      .cls-2 {
        font-family: MaragsaDisplay, Maragsa;
        font-size: 40px;
      }
    </style>
  </defs>
  <path class="cls-3" d="m540,246.1c-162.32,0-293.9,131.58-293.9,293.9s131.58,293.9,293.9,293.9,293.9-131.58,293.9-293.9-131.58-293.9-293.9-293.9Zm0,491.46c-109.11,0-197.56-88.45-197.56-197.56s88.45-197.56,197.56-197.56,197.56,88.45,197.56,197.56-88.45,197.56-197.56,197.56Z"/>
  <g id="sun_rays" data-name="sun rays">
    <rect class="cls-3" x="485.53" y="155.01" width="108.93" height="105.75"/>
    <rect class="cls-3" x="250.69" y="252.28" width="108.93" height="105.75" transform="translate(-126.4 305.16) rotate(-45)"/>
    <rect class="cls-3" x="153.42" y="487.13" width="108.93" height="105.75" transform="translate(-332.12 747.88) rotate(-90)"/>
    <rect class="cls-3" x="250.69" y="721.97" width="108.93" height="105.75" transform="translate(-26.96 1538.52) rotate(-135)"/>
    <rect class="cls-3" x="485.53" y="819.24" width="108.93" height="105.75" transform="translate(1080 1744.24) rotate(-180)"/>
    <rect class="cls-3" x="720.38" y="721.97" width="108.93" height="105.75" transform="translate(1870.64 774.84) rotate(135)"/>
    <rect class="cls-3" x="817.65" y="487.13" width="108.93" height="105.75" transform="translate(1412.12 -332.12) rotate(90)"/>
    <rect class="cls-3" x="720.38" y="252.28" width="108.93" height="105.75" transform="translate(442.72 -458.52) rotate(45)"/>
  </g>
  <g id="details">
    <g>
      <polygon class="cls-3" points="615.32 273.76 601 273.76 601 155.01 630.32 181.01 615.32 273.76"/>
      <polygon class="cls-3" points="464.68 273.76 479 273.76 479 155.01 449.68 181.01 464.68 273.76"/>
    </g>
    <g>
      <polygon class="cls-3" points="404.99 298.48 394.87 308.61 310.9 224.64 350.02 222.29 404.99 298.48"/>
      <polygon class="cls-3" points="298.48 404.99 308.61 394.87 224.64 310.9 222.29 350.02 298.48 404.99"/>
    </g>
    <g>
      <polygon class="cls-3" points="273.76 464.68 273.76 479 155.01 479 181.01 449.68 273.76 464.68"/>
      <polygon class="cls-3" points="273.76 615.32 273.76 601 155.01 601 181.01 630.32 273.76 615.32"/>
    </g>
    <g>
      <polygon class="cls-3" points="298.48 675.01 308.61 685.13 224.64 769.1 222.29 729.98 298.48 675.01"/>
      <polygon class="cls-3" points="404.99 781.52 394.87 771.39 310.9 855.36 350.02 857.71 404.99 781.52"/>
    </g>
    <g>
      <polygon class="cls-3" points="464.68 806.24 479 806.24 479 924.99 449.68 898.99 464.68 806.24"/>
      <polygon class="cls-3" points="615.32 806.24 601 806.24 601 924.99 630.32 898.99 615.32 806.24"/>
    </g>
    <g>
      <polygon class="cls-3" points="675.01 781.52 685.13 771.39 769.1 855.36 729.98 857.71 675.01 781.52"/>
      <polygon class="cls-3" points="781.52 675.01 771.39 685.13 855.36 769.1 857.71 729.98 781.52 675.01"/>
    </g>
    <g>
      <polygon class="cls-3" points="806.24 615.32 806.24 601 924.99 601 898.99 630.32 806.24 615.32"/>
      <polygon class="cls-3" points="806.24 464.68 806.24 479 924.99 479 898.99 449.68 806.24 464.68"/>
    </g>
    <g>
      <polygon class="cls-3" points="781.52 404.99 771.39 394.87 855.36 310.9 857.71 350.02 781.52 404.99"/>
      <polygon class="cls-3" points="675.01 298.48 685.13 308.61 769.1 224.64 729.98 222.29 675.01 298.48"/>
    </g>
  </g>
  <polygon class="cls-3" points="678.96 506.9 682.49 529.79 703.34 539.86 682.67 550.29 679.53 573.24 663.22 556.8 640.43 560.91 651.03 540.32 640.08 519.91 662.94 523.63 678.96 506.9"/>
  <polygon class="cls-1" points="441.86 436.21 459.92 421.71 458.21 398.61 477.58 411.3 499.02 402.54 492.93 424.89 507.89 442.57 484.76 443.69 472.57 463.38 464.35 441.72 441.86 436.21"/>
  <polygon class="cls-4" points="499.18 676.89 477.59 668.5 458.45 681.53 459.75 658.4 441.45 644.22 463.84 638.32 471.67 616.52 484.21 636 507.36 636.71 492.71 654.65 499.18 676.89"/>
  <text class="cls-2" transform="translate(451.05 743.8) rotate(-153.93)"><tspan x="0" y="0">F</tspan></text>
  <text class="cls-2" transform="translate(431.69 734.02) rotate(-149.67)"><tspan x="0" y="0">I</tspan></text>
  <text class="cls-2" transform="translate(421.68 728.26) rotate(-145.48)"><tspan x="0" y="0">L</tspan></text>
  <text class="cls-2" transform="translate(404.39 716.05) rotate(-141.27)"><tspan x="0" y="0">I</tspan></text>
  <text class="cls-2" transform="translate(395.33 708.97) rotate(-136.78)"><tspan x="0" y="0">P</tspan></text>
  <text class="cls-2" transform="translate(378.51 692.72) rotate(-132.26)"><tspan x="0" y="0">I</tspan></text>
  <text class="cls-2" transform="translate(370.62 684.4) rotate(-127.24)"><tspan x="0" y="0">N</tspan></text>
  <text class="cls-2" transform="translate(354.34 662.82) rotate(-120.11)"><tspan x="0" y="0">O</tspan></text>
  <text class="cls-2" transform="translate(340.65 638.21) rotate(-115.39)"><tspan x="0" y="0"> </tspan></text>
  <text class="cls-2" transform="translate(337.01 630.42) rotate(-113.18)"><tspan x="0" y="0"> </tspan></text>
  <text class="cls-2" transform="translate(333.56 622.74) rotate(-109.27)"><tspan x="0" y="0">E</tspan></text>
  <text class="cls-2" transform="translate(326.29 602.02) rotate(-103.04)"><tspan x="0" y="0">N</tspan></text>
  <text class="cls-2" transform="translate(320.34 575.64) rotate(-96.22)"><tspan x="0" y="0">G</tspan></text>
  <text class="cls-2" transform="translate(317.94 550) rotate(-91.43)"><tspan x="0" y="0">I</tspan></text>
  <text class="cls-2" transform="translate(317.41 538.57) rotate(-86.41)"><tspan x="0" y="0">N</tspan></text>
  <text class="cls-2" transform="translate(319.37 511.52) rotate(-80.05)"><tspan x="0" y="0">E</tspan></text>
  <text class="cls-2" transform="translate(323.27 489.9) rotate(-74.38)"><tspan x="0" y="0">E</tspan></text>
  <text class="cls-2" transform="translate(329.21 468.77) rotate(-68.3)"><tspan x="0" y="0">R</tspan></text>
  <text class="cls-2" transform="translate(339 445.19) rotate(-63.56)"><tspan x="0" y="0">I</tspan></text>
  <text class="cls-2" transform="translate(343.9 434.8) rotate(-58.6)"><tspan x="0" y="0">N</tspan></text>
  <text class="cls-2" transform="translate(358.14 411.78) rotate(-51.8)"><tspan x="0" y="0">G</tspan></text>
  <text class="cls-2" transform="translate(374.62 391.54) rotate(-47.36)"><tspan x="0" y="0"> </tspan></text>
  <text class="cls-2" transform="translate(380.49 385.24) rotate(-45.14)"><tspan x="0" y="0"> </tspan></text>
  <text class="cls-2" transform="translate(386.17 379.1) rotate(-40.46)"><tspan x="0" y="0">A</tspan></text>
  <text class="cls-2" transform="translate(407.28 361.43) rotate(-33.88)"><tspan x="0" y="0">S</tspan></text>
  <text class="cls-2" transform="translate(426.6 348.59) rotate(-27.87)"><tspan x="0" y="0">S</tspan></text>
  <text class="cls-2" transform="translate(447.03 337.77) rotate(-21.3)"><tspan x="0" y="0">O</tspan></text>
  <text class="cls-2" transform="translate(473.17 327.84) rotate(-14.74)"><tspan x="0" y="0">C</tspan></text>
  <text class="cls-2" transform="translate(496.4 322.08) rotate(-10.2)"><tspan x="0" y="0">I</tspan></text>
  <text class="cls-2" transform="translate(507.65 319.8) rotate(-5.13)"><tspan x="0" y="0">A</tspan></text>
  <text class="cls-2" transform="translate(531.69 317.63) rotate(.82)"><tspan x="0" y="0">T</tspan></text>
  <text class="cls-2" transform="translate(557 318.38) rotate(5.6)"><tspan x="0" y="0">I</tspan></text>
  <text class="cls-2" transform="translate(568.43 319.23) rotate(10.72)"><tspan x="0" y="0">O</tspan></text>
  <text class="cls-2" transform="translate(595.81 324.58) rotate(17.8)"><tspan x="0" y="0">N</tspan></text>
  <text class="cls-2" transform="translate(621.66 333.37) rotate(22.38)"><tspan x="0" y="0"> </tspan></text>
  <text class="cls-2" transform="translate(629.59 336.7) rotate(24.58)"><tspan x="0" y="0"> </tspan></text>
  <text class="cls-2" transform="translate(637.33 339.89) rotate(29.26)"><tspan x="0" y="0">O</tspan></text>
  <text class="cls-2" transform="translate(661.58 353.82) rotate(35.6)"><tspan x="0" y="0">F</tspan></text>
  <text class="cls-2" transform="translate(679.07 366.72) rotate(39.48)"><tspan x="0" y="0"> </tspan></text>
  <text class="cls-2" transform="translate(685.69 372.24) rotate(41.7)"><tspan x="0" y="0"> </tspan></text>
  <text class="cls-2" transform="translate(692.1 377.71) rotate(45.82)"><tspan x="0" y="0">S</tspan></text>
  <text class="cls-2" transform="translate(708.19 394.35) rotate(52.07)"><tspan x="0" y="0">T</tspan></text>
  <text class="cls-2" transform="translate(723.56 414.21) rotate(58.77)"><tspan x="0" y="0">U</tspan></text>
  <text class="cls-2" transform="translate(737.15 436.92) rotate(65.51)"><tspan x="0" y="0">D</tspan></text>
  <text class="cls-2" transform="translate(747.59 460.46) rotate(71.37)"><tspan x="0" y="0">E</tspan></text>
  <text class="cls-2" transform="translate(754.57 481.22) rotate(77.83)"><tspan x="0" y="0">N</tspan></text>
  <text class="cls-2" transform="translate(760.09 507.71) rotate(84.57)"><tspan x="0" y="0">T</tspan></text>
  <text class="cls-2" transform="translate(762.28 532.09) rotate(90.66)"><tspan x="0" y="0">S</tspan></text>
  <text class="cls-2" transform="translate(761.65 555.48) rotate(94.79)"><tspan x="0" y="0"> </tspan></text>
  <text class="cls-2" transform="translate(760.88 564.06) rotate(97.03)"><tspan x="0" y="0"> </tspan></text>
  <text class="cls-2" transform="translate(759.81 572.56) rotate(99.65)"><tspan x="0" y="0">I</tspan></text>
  <text class="cls-2" transform="translate(758.13 583.91) rotate(104.65)"><tspan x="0" y="0">N</tspan></text>
  <text class="cls-2" transform="translate(750.77 610.19) rotate(109.24)"><tspan x="0" y="0"> </tspan></text>
  <text class="cls-2" transform="translate(747.88 618.3) rotate(111.45)"><tspan x="0" y="0"> </tspan></text>
  <text class="cls-2" transform="translate(745.03 626.19) rotate(115.77)"><tspan x="0" y="0">T</tspan></text>
  <text class="cls-2" transform="translate(734.87 647.35) rotate(122.15)"><tspan x="0" y="0">O</tspan></text>
  <text class="cls-2" transform="translate(719.85 670.88) rotate(128.98)"><tspan x="0" y="0">R</tspan></text>
  <text class="cls-2" transform="translate(705.28 689) rotate(135.31)"><tspan x="0" y="0">O</tspan></text>
  <text class="cls-2" transform="translate(685.34 708.5) rotate(142.43)"><tspan x="0" y="0">N</tspan></text>
  <text class="cls-2" transform="translate(663.78 724.86) rotate(149.2)"><tspan x="0" y="0">T</tspan></text>
  <text class="cls-2" transform="translate(643.65 736.92) rotate(155.63)"><tspan x="0" y="0">O</tspan></text>
</svg>